#!OML:ASF X:\für Bonn\!DataBase\2005_08_12_Daniel\c3d\Daniel.ASF
:FULLY-SPECIFIED
:DEGREES
547
root 25.7221 16.9306 -25.137 5.0325 -63.8883 -5.17535
lowerback 13.1433 -3.08997 0.647629
upperback 4.23395 -4.15063 -0.909601
thorax -3.01683 -2.10524 -0.665083
lowerneck 2.216 7.76928 -4.78416
upperneck 8.56069 10.492 -4.90472
head 2.36443 4.85866 -0.620355
rclavicle 3.77691e-014 -1.98785e-014
rhumerus -56.4811 -40.1656 -47.8291
rradius 8.31347
rwrist 47.3977
rhand -17.5971 11.2453
rfingers 7.12502
rthumb 8.65919 -18.5571
lclavicle 3.77691e-014 -1.98785e-014
lhumerus -30.6631 41.4665 70.304
lradius 16.4318
lwrist -44.0355
lhand -13.2062 -7.30974
lfingers 7.12502
lthumb 12.8945 22.2719
rfemur -37.7649 19.8246 9.57259
rtibia 24.7155
rfoot -18.0981 -11.0669
rtoes -18.4884
lfemur 26.895 -9.55357 -25.7077
ltibia 6.60848
lfoot -29.1454 -0.863585
ltoes -6.23552
548
root 25.585 16.9093 -25.0824 5.44922 -63.7231 -5.59206
lowerback 13.2045 -3.15053 0.963281
upperback 4.23947 -4.18624 -0.824422
thorax -3.06017 -2.12278 -0.743888
lowerneck 2.10792 7.80619 -4.54832
upperneck 8.65719 10.5618 -4.94366
head 2.43159 4.89473 -0.661726
rclavicle 5.74488e-014 -3.97569e-015
rhumerus -56.4467 -39.9186 -47.8603
rradius 8.13875
rwrist 46.7626
rhand -17.8052 10.9552
rfingers 7.12502
rthumb 8.45834 -18.8554
lclavicle 5.74488e-014 -3.97569e-015
lhumerus -30.2646 40.9651 70.852
lradius 16.7533
lwrist -43.3722
lhand -13.0153 -7.59437
lfingers 7.12502
lthumb 13.0785 21.9756
rfemur -37.6974 18.6285 10.4237
rtibia 25.2061
rfoot -16.6477 -9.73696
rtoes -18.9851
lfemur 27.522 -9.57798 -25.4715
ltibia 6.2944
lfoot -28.9143 -1.09379
ltoes -6.00402
549
root 25.4437 16.8904 -25.0277 5.91421 -63.5836 -6.00831
lowerback 13.2016 -3.19271 1.21515
upperback 4.23155 -4.20355 -0.689068
thorax -3.07443 -2.13131 -0.741043
lowerneck 1.89081 7.83683 -4.3843
upperneck 8.90816 10.6368 -4.96603
head 2.56538 4.92257 -0.678956
rclavicle 6.69904e-014 -1.27222e-014
rhumerus -56.4391 -39.6173 -47.8293
rradius 8.01648
rwrist 46.2693
rhand -18.11 10.8119
rfingers 7.12502
rthumb 8.16419 -19.0104
lclavicle 6.69904e-014 -1.27222e-014
lhumerus -29.8331 40.1796 71.6041
lradius 17.1241
lwrist -42.3411
lhand -12.9449 -7.81151
lfingers 7.12502
lthumb 13.1463 21.7541
rfemur -37.7228 17.377 11.303
rtibia 25.8395
rfoot -15.2226 -8.36417
rtoes -19.7637
lfemur 28.1014 -9.58033 -25.2256
ltibia 5.97086
lfoot -28.5391 -1.32432
ltoes -5.87405
550
root 25.2974 16.87 -24.971 6.32631 -63.431 -6.42106
lowerback 13.1987 -3.2315 1.47648
upperback 4.24818 -4.21707 -0.577056
thorax -3.06531 -2.13815 -0.769159
lowerneck 1.77108 7.86012 -4.05217
upperneck 9.07353 10.6975 -5.09849
head 2.67087 4.95112 -0.763092
rclavicle -1.03368e-014 6.36111e-015
rhumerus -56.3742 -39.422 -47.8642
rradius 7.84652
rwrist 45.9112
rhand -18.4007 10.6299
rfingers 7.12502
rthumb 7.88364 -19.2031
lclavicle -1.03368e-014 6.36111e-015
lhumerus -29.3919 39.3738 72.3218
lradius 17.5013
lwrist -41.2435
lhand -12.8703 -7.93484
lfingers 7.12502
lthumb 13.2182 21.6261
rfemur -37.7245 16.0549 12.2462
rtibia 26.6091
rfoot -13.9087 -6.96842
rtoes -20.8212
lfemur 28.8005 -9.59228 -24.9792
ltibia 5.58304
lfoot -28.1026 -1.57917
ltoes -5.69488
551
root 25.1479 16.8531 -24.9143 6.8548 -63.2521 -6.9322
lowerback 13.1573 -3.26496 1.80278
upperback 4.26575 -4.2162 -0.469616
thorax -3.03878 -2.13764 -0.842805
lowerneck 1.54171 7.87646 -3.71612
upperneck 9.32116 10.7565 -5.16066
head 2.82035 4.97638 -0.819945
rclavicle -6.34123e-014 1.90833e-014
rhumerus -56.2623 -39.3329 -47.9232
rradius 7.58222
rwrist 45.509
rhand -18.7411 10.4269
rfingers 7.12502
rthumb 7.55504 -19.4182
lclavicle -6.34123e-014 1.90833e-014
lhumerus -28.9266 38.3195 73.1113
lradius 17.9022
lwrist -39.8659
lhand -12.7647 -7.98398
lfingers 7.12502
lthumb 13.32 21.5703
rfemur -37.8084 14.8731 13.1625
rtibia 27.505
rfoot -12.7764 -5.71597
rtoes -21.0812
lfemur 29.564 -9.63151 -24.666
ltibia 4.99627
lfoot -27.4799 -1.82619
ltoes -5.54929
552
root 24.9933 16.8381 -24.8549 7.41321 -63.0893 -7.47802
lowerback 13.0677 -3.29519 2.12749
upperback 4.28147 -4.21206 -0.341516
thorax -2.98622 -2.13535 -0.897369
lowerneck 1.50188 7.88345 -3.41983
upperneck 9.37724 10.7797 -5.2499
head 2.87058 4.99324 -0.891755
rclavicle 2.06736e-014 -7.95139e-015
rhumerus -56.1401 -39.2041 -47.9656
rradius 7.3489
rwrist 45.273
rhand -18.9569 10.1233
rfingers 7.12502
rthumb 7.34676 -19.7292
lclavicle 2.06736e-014 -7.95139e-015
lhumerus -28.575 37.1887 73.9052
lradius 18.3951
lwrist -38.3919
lhand -12.8028 -8.00026
lfingers 7.12502
lthumb 13.2833 21.5564
rfemur -37.9157 13.747 14.0923
rtibia 28.4818
rfoot -11.7009 -4.60934
rtoes -20.1408
lfemur 30.4014 -9.64983 -24.3363
ltibia 4.32391
lfoot -26.8347 -2.06874
ltoes -5.4655
553
root 24.8363 16.8257 -24.7956 7.94916 -62.9419 -7.9861
lowerback 12.9666 -3.33781 2.38484
upperback 4.29106 -4.23354 -0.205515
thorax -2.92946 -2.14571 -0.90257
lowerneck 1.51113 7.92745 -3.08968
upperneck 9.34735 10.848 -5.38966
head 2.88938 5.03655 -0.987838
rclavicle 3.63776e-014 -2.46493e-014
rhumerus -55.8409 -39.1204 -48.1675
rradius 7.03641
rwrist 44.9164
rhand -19.1875 9.76145
rfingers 7.12502
rthumb 7.12418 -20.0986
lclavicle 3.63776e-014 -2.46493e-014
lhumerus -28.3142 35.8557 74.7079
lradius 18.9732
lwrist -36.6017
lhand -12.8273 -7.89638
lfingers 7.12502
lthumb 13.2597 21.6619
rfemur -38.0516 12.7353 14.9492
rtibia 29.5018
rfoot -10.6351 -3.6236
rtoes -18.6045
lfemur 31.1673 -9.6616 -24.0034
ltibia 3.74359
lfoot -26.1109 -2.36162
ltoes -4.99584
554
root 24.6761 16.8155 -24.7348 8.50014 -62.7949 -8.52791
lowerback 12.8581 -3.35435 2.65176
upperback 4.31677 -4.22051 -0.0427666
thorax -2.84915 -2.13897 -0.891889
lowerneck 1.4114 7.94825 -2.80745
upperneck 9.42413 10.8943 -5.47392
head 2.95759 5.06292 -1.05288
rclavicle 4.33351e-014 -1.90833e-014
rhumerus -55.5642 -39.0569 -48.2696
rradius 6.76855
rwrist 44.5758
rhand -19.1639 9.41526
rfingers 7.12502
rthumb 7.14694 -20.4441
lclavicle 4.33351e-014 -1.90833e-014
lhumerus -28.0839 34.4913 75.565
lradius 19.5782
lwrist -34.8204
lhand -12.8417 -7.80233
lfingers 7.12502
lthumb 13.2458 21.7568
rfemur -38.1746 11.9224 15.734
rtibia 30.5467
rfoot -9.75727 -2.86164
rtoes -16.808
lfemur 31.8523 -9.67037 -23.6496
ltibia 3.32733
lfoot -25.4014 -2.64802
ltoes -4.82685
555
root 24.5141 16.8081 -24.6723 9.06935 -62.6525 -9.06341
lowerback 12.7501 -3.36415 2.95268
upperback 4.30006 -4.19463 0.0855093
thorax -2.81777 -2.12564 -0.936234
lowerneck 1.42767 7.9634 -2.49047
upperneck 9.43332 10.921 -5.55038
head 2.98328 5.08578 -1.12784
rclavicle 5.36719e-014 -1.63003e-014
rhumerus -55.4045 -39.0063 -48.3555
rradius 6.58662
rwrist 44.1977
rhand -18.9949 9.04461
rfingers 7.12502
rthumb 7.31011 -20.8091
lclavicle 5.36719e-014 -1.63003e-014
lhumerus -28.026 32.8372 76.3534
lradius 20.26
lwrist -32.8258
lhand -12.9538 -7.6618
lfingers 7.12502
lthumb 13.1378 21.9043
rfemur -38.2943 11.2254 16.4637
rtibia 31.582
rfoot -9.13023 -2.20861
rtoes -15.6316
lfemur 32.1509 -9.66999 -23.3019
ltibia 3.55486
lfoot -24.8628 -2.87806
ltoes -4.62346
